<?xml version="1.0" standalone="no"?><!DOCTYPE svg PUBLIC "-//W3C//DTD SVG 1.1//EN" "http://www.w3.org/Graphics/SVG/1.1/DTD/svg11.dtd"><svg t="1542339864052" class="icon" style="" viewBox="0 0 1024 1024" version="1.1" xmlns="http://www.w3.org/2000/svg" p-id="2678" xmlns:xlink="http://www.w3.org/1999/xlink" width="200" height="200"><defs><style type="text/css"></style></defs><path d="M311.007 776.042c-14.461 0-24.092-9.644-24.092-24.092 0-4.818 0-45.79 0-48.199 7.222-236.148 197.598-426.516 433.747-431.333 4.818 0 180.73 0 216.867 0 14.461 0 24.092 9.644 24.092 24.092 0 14.461-9.644 24.092-24.092 24.092 0 0-209.646 0-216.867 0-209.646 4.818-380.731 173.499-387.954 385.546 0 4.818 0 43.367 0 48.199 2.406 9.644-9.644 21.692-21.692 21.692z" p-id="2679" fill="#bfbfbf"></path><path d="M817.032 944.725h-626.524c-69.876 0-125.302-55.422-125.302-125.302v-602.42c0-69.876 55.422-125.302 125.302-125.302h361.449c16.867 0 28.915 12.046 28.915 28.915s-12.046 28.915-28.915 28.915h-361.449c-36.144 0-67.47 31.327-67.47 67.47v602.42c0 36.144 31.327 67.47 67.47 67.47h626.524c36.144 0 67.47-31.327 67.47-67.47v-253.019c0-16.867 12.046-28.915 28.915-28.915s28.915 12.046 28.915 28.915v253.019c0 69.876-57.833 125.302-125.302 125.302z" p-id="2680" fill="#bfbfbf"></path><path d="M759.202 510.988c-7.222 0-12.046-2.406-16.867-7.222-9.644-9.644-9.644-24.092 0-33.74l175.911-175.911-175.911-175.911c-9.644-9.644-9.644-24.092 0-33.74s24.092-9.644 33.74 0l192.779 192.779c9.644 9.644 9.644 24.092 0 33.74l-192.779 192.779c-2.406 4.818-9.644 7.222-16.867 7.222z" p-id="2681" fill="#bfbfbf"></path></svg>